<?xml version="1.0" encoding="UTF-8"?>
<svg id="Ebene_1" xmlns="http://www.w3.org/2000/svg" version="1.1" viewBox="0 0 32 32">
  <!-- Generator: Adobe Illustrator 29.3.1, SVG Export Plug-In . SVG Version: 2.1.0 Build 151)  -->
  <rect width="32" height="32" fill="#fff"/>
  <path d="M29.81,27.9l-7.24-7.24,6.39-2.9c.26-.12.41-.38.38-.66-.03-.28-.23-.51-.5-.58l-16.48-3.96c-.22-.05-.46.01-.62.17-.16.16-.23.4-.18.62l3.96,16.48c.07.27.3.48.58.5.29.02.55-.13.66-.38l2.9-6.39,7.24,7.24c.13.13.3.19.47.19s.34-.06.47-.19l1.98-1.98c.26-.26.26-.67,0-.93Z"/>
  <path d="M11.25,20.64c-4.55-.04-8.25-3.75-8.25-8.32S6.73,4,11.32,4s8.28,3.7,8.32,8.25l1.99.48h0s0-.27,0-.41c0-5.69-4.63-10.32-10.32-10.32S1,6.63,1,12.32s4.63,10.32,10.32,10.32c.13,0,.27-.02.4-.03l-.47-1.98Z" fill="#003c8c"/>
  <path d="M11.32,22.64c-5.69,0-10.32-4.63-10.32-10.32S5.63,2,11.32,2s10.32,4.63,10.32,10.32c0,.14,0,.41,0,.41,0,0-1.99-.46-1.99-.48-.04-4.56-3.75-8.25-8.32-8.25S3,7.73,3,12.32s3.73,8.32,8.32,8.32c.34,0,.7-.02,1.05-.07l.27,1.98c-.44.06-.88.09-1.31.09Z" fill="#003c8c"/>
  <path d="M9.61,13.82c-.21-.89.06-1.85.7-2.5.49-.5,1.18-.78,1.88-.78.21,0,.42.03.62.07l4.68,1.12c-.29-3.16-2.95-5.63-6.18-5.63-3.43,0-6.21,2.78-6.21,6.21,0,3.23,2.47,5.89,5.63,6.18l-1.12-4.68Z" fill="#003c8c"/>
</svg>